<svg width="11" height="13" viewBox="0 0 11 13" fill="none" xmlns="http://www.w3.org/2000/svg">
<path fill-rule="evenodd" clip-rule="evenodd" d="M7.03216 1.1424C7.52277 0.651753 8.31825 0.651753 8.80893 1.1424L9.69731 2.03079C10.188 2.52143 10.188 3.31692 9.69731 3.80757L8.80893 4.69596L6.14378 2.03079L7.03216 1.1424ZM5.69952 2.47497L8.36467 5.14014L3.21834 10.2865C3.10053 10.4043 2.94075 10.4705 2.77414 10.4705H0.683274C0.5098 10.4705 0.36918 10.3298 0.36918 10.1564V8.06555C0.36918 7.89889 0.43536 7.73914 0.55317 7.62136L5.69952 2.47497ZM0.764109 11.2473C0.503908 11.2473 0.292969 11.4582 0.292969 11.7184C0.292969 11.9787 0.503908 12.1895 0.764109 12.1895H9.87282C10.133 12.1895 10.344 11.9787 10.344 11.7184C10.344 11.4582 10.133 11.2473 9.87282 11.2473H0.764109Z" fill="#00798A"/>
</svg>
