<svg width="29" height="28" viewBox="0 0 29 28" fill="none" xmlns="http://www.w3.org/2000/svg">
<g clip-path="url(#clip0_2_2349)" filter="url(#filter0_d_2_2349)">
<g clip-path="url(#clip1_2_2349)">
<path fill-rule="evenodd" clip-rule="evenodd" d="M5.17773 17.2594C5.63284 17.4689 6.09631 17.6635 6.56749 17.8423C9.00026 18.7656 11.6387 19.2711 14.3953 19.2711C17.1528 19.2711 19.7922 18.7652 22.2257 17.8413C22.6968 17.6624 23.1602 17.4678 23.6153 17.2582L22.9029 15.9347L21.9662 14.1945L21.1895 12.7513L15.2486 1.71424L14.3968 0.131836L13.5451 1.71424L5.89016 15.9358L5.17773 17.2594ZM14.3968 3.29665L19.7784 13.2946C18.0875 13.8599 16.278 14.1661 14.397 14.1661C12.5159 14.1661 10.7063 13.8598 9.01536 13.2945L14.3968 3.29665ZM14.397 15.7997C12.2355 15.7997 10.1601 15.4309 8.23044 14.7528L7.28504 16.5092C9.49937 17.3251 11.8939 17.7711 14.3953 17.7711C16.8977 17.7711 19.2931 17.3248 21.5081 16.5082L20.5633 14.7529C18.6336 15.4309 16.5584 15.7997 14.397 15.7997ZM16.0003 12.0002C16.5526 12.0002 17.0003 11.5525 17.0003 11.0002C17.0003 10.4479 16.5526 10.0002 16.0003 10.0002C15.448 10.0002 15.0002 10.4479 15.0002 11.0002C15.0002 11.5525 15.448 12.0002 16.0003 12.0002ZM13.687 12.0002C13.687 12.5525 13.2393 13.0002 12.687 13.0002C12.1347 13.0002 11.687 12.5525 11.687 12.0002C11.687 11.4479 12.1347 11.0002 12.687 11.0002C13.2393 11.0002 13.687 11.4479 13.687 12.0002ZM14.3259 9.00024C14.8782 9.00024 15.326 8.55253 15.326 8.00024C15.326 7.44795 14.8782 7.00024 14.3259 7.00024C13.7736 7.00024 13.3259 7.44795 13.3259 8.00024C13.3259 8.55253 13.7736 9.00024 14.3259 9.00024Z" fill="#7A1D47"/>
</g>
</g>
<defs>
<filter id="filter0_d_2_2349" x="0.5" y="0" width="28" height="28" filterUnits="userSpaceOnUse" color-interpolation-filters="sRGB">
<feFlood flood-opacity="0" result="BackgroundImageFix"/>
<feColorMatrix in="SourceAlpha" type="matrix" values="0 0 0 0 0 0 0 0 0 0 0 0 0 0 0 0 0 0 127 0" result="hardAlpha"/>
<feOffset dy="4"/>
<feGaussianBlur stdDeviation="2"/>
<feComposite in2="hardAlpha" operator="out"/>
<feColorMatrix type="matrix" values="0 0 0 0 0 0 0 0 0 0 0 0 0 0 0 0 0 0 0.25 0"/>
<feBlend mode="normal" in2="BackgroundImageFix" result="effect1_dropShadow_2_2349"/>
<feBlend mode="normal" in="SourceGraphic" in2="effect1_dropShadow_2_2349" result="shape"/>
</filter>
<clipPath id="clip0_2_2349">
<rect width="20" height="20" fill="white" transform="translate(4.5)"/>
</clipPath>
<clipPath id="clip1_2_2349">
<rect width="19" height="20" fill="white" transform="translate(5)"/>
</clipPath>
</defs>
</svg>
