<svg width="29" height="28" viewBox="0 0 29 28" fill="none" xmlns="http://www.w3.org/2000/svg">
<g clip-path="url(#clip0_2_2361)" filter="url(#filter0_d_2_2361)">
<g clip-path="url(#clip1_2_2361)">
<g clip-path="url(#clip2_2_2361)">
<path fill-rule="evenodd" clip-rule="evenodd" d="M16.3128 18.3063C15.7287 18.4332 15.1221 18.5 14.5 18.5C13.8517 18.5 13.2203 18.4274 12.6136 18.2899L11.8281 15.7803L12.7667 14.1547H16.2985L17.06 15.9188L16.3128 18.3063ZM18.0691 17.7166C18.807 17.3748 19.4876 16.9302 20.0925 16.4012L18.4975 16.3479L18.0691 17.7166ZM21.4146 14.9446C22.2858 13.7286 22.8441 12.2732 22.9719 10.6961L20.6987 8.95736L18.8645 9.45598L17.6265 13.4464L18.2273 14.838L21.4146 14.9446ZM22.9103 8.76047C22.7803 7.87102 22.5126 7.02628 22.1295 6.2486L21.646 7.79343L22.9103 8.76047ZM21.0712 4.60804L20.1498 7.55216L18.4263 8.02065L15.3119 5.65083V3.87196L17.7491 2.14306C19.051 2.68205 20.1899 3.53522 21.0712 4.60804ZM15.9011 1.61492L14.685 2.47764L13.4852 1.55995C13.818 1.52036 14.1566 1.5 14.5 1.5C14.9772 1.5 15.4453 1.53933 15.9011 1.61492ZM11.8941 0.342926C11.316 0.49847 10.7583 0.704392 10.2266 0.955974C9.10584 1.48645 8.09987 2.21945 7.25498 3.10724L7.25364 3.10729C6.80425 3.57948 6.40055 4.09555 6.04961 4.64842L6.051 4.64837C5.0688 6.19581 4.5 8.03148 4.5 10C4.5 10.0577 4.50049 10.1153 4.50146 10.1727L4.5 10.1738C4.51017 10.7709 4.57265 11.3552 4.68307 11.9223L4.68439 11.9213C4.91445 13.1035 5.35276 14.2112 5.95958 15.2048L5.95802 15.2049C6.2765 15.7264 6.64141 16.2164 7.04699 16.6693L7.04859 16.6692C8.21639 17.9731 9.72139 18.9686 11.4265 19.5188C11.9717 19.6947 12.5377 19.8256 13.1194 19.9059C13.5707 19.9682 14.0315 20 14.5 20C20.0228 20 24.5 15.5228 24.5 10C24.5 4.47715 20.0228 0 14.5 0C13.5985 0 12.7249 0.119283 11.8941 0.342926ZM10.8506 17.6789L10.4985 16.5538L9.14222 16.5992C9.664 17.0233 10.237 17.3868 10.8506 17.6789ZM7.73375 15.1454L10.5164 15.0523L11.5289 13.2986L10.3562 9.5184L8.4823 9.0163L6.04506 10.8805C6.20904 12.4739 6.81314 13.9367 7.73375 15.1454ZM6.06055 8.9802L7.3494 7.99436L7.34972 7.99317L6.82986 6.33223C6.43769 7.15088 6.17272 8.04206 6.06055 8.9802ZM7.88052 4.66732L8.78068 7.54334L10.7195 8.06285L13.8119 5.70974V3.69837L11.601 2.0072C10.1285 2.54137 8.84564 3.47083 7.88052 4.66732ZM16.3016 12.6547H13.3011L12.8121 12.3723L11.8039 9.12258L14.6006 6.99447L17.3974 9.12258L16.3016 12.6547Z" fill="#008294"/>
</g>
</g>
</g>
<defs>
<filter id="filter0_d_2_2361" x="0.5" y="0" width="28" height="28" filterUnits="userSpaceOnUse" color-interpolation-filters="sRGB">
<feFlood flood-opacity="0" result="BackgroundImageFix"/>
<feColorMatrix in="SourceAlpha" type="matrix" values="0 0 0 0 0 0 0 0 0 0 0 0 0 0 0 0 0 0 127 0" result="hardAlpha"/>
<feOffset dy="4"/>
<feGaussianBlur stdDeviation="2"/>
<feComposite in2="hardAlpha" operator="out"/>
<feColorMatrix type="matrix" values="0 0 0 0 0 0 0 0 0 0 0 0 0 0 0 0 0 0 0.25 0"/>
<feBlend mode="normal" in2="BackgroundImageFix" result="effect1_dropShadow_2_2361"/>
<feBlend mode="normal" in="SourceGraphic" in2="effect1_dropShadow_2_2361" result="shape"/>
</filter>
<clipPath id="clip0_2_2361">
<rect width="20" height="20" fill="white" transform="translate(4.5)"/>
</clipPath>
<clipPath id="clip1_2_2361">
<rect width="20" height="20" fill="white" transform="translate(4.5)"/>
</clipPath>
<clipPath id="clip2_2_2361">
<rect width="20" height="20" fill="white" transform="translate(4.5)"/>
</clipPath>
</defs>
</svg>
