<svg width="29" height="28" viewBox="0 0 29 28" fill="none" xmlns="http://www.w3.org/2000/svg">
<g clip-path="url(#clip0_2_2343)" filter="url(#filter0_d_2_2343)">
<g clip-path="url(#clip1_2_2343)">
<g clip-path="url(#clip2_2_2343)">
<path fill-rule="evenodd" clip-rule="evenodd" d="M10.1843 2.68751L8.25307 5.08415C9.06068 5.50521 9.40802 6.58812 8.82221 7.42399L7.28025 9.62418H12.7928L11.2509 7.42399C10.6143 6.51574 11.0796 5.31582 12.0399 4.99025L10.1843 2.68751ZM13.8981 4.90572L10.5736 0.780027C10.3735 0.531658 9.9951 0.531658 9.79497 0.780027L6.47046 4.90572L6.46134 4.91704L6.30679 5.10884L5.91746 5.592C5.73999 5.81224 5.78757 6.10482 5.96584 6.27246C6.00873 6.3128 6.05918 6.3459 6.11589 6.36902C6.17352 6.39253 6.23762 6.40572 6.30679 6.40572H6.92729H7.17361H7.18815H7.36926H7.51195C7.59288 6.40572 7.64029 6.49684 7.59384 6.56311L7.51195 6.67996L6.79086 7.70887L6.6529 7.90572L5.44856 9.62418L5.44602 9.6278L5.35829 9.75297L4.94884 10.3372C4.71661 10.6686 4.95365 11.1241 5.35829 11.1241H6.07173H6.22458H6.22901H9.30712V13.8339C8.92691 13.7959 8.54123 13.7764 8.15101 13.7764C7.44817 13.7764 6.76007 13.8395 6.09206 13.9604C5.66285 14.038 5.41973 14.4833 5.5555 14.8978C5.67808 15.272 6.06769 15.4857 6.45586 15.4194C7.00631 15.3254 7.57259 15.2764 8.15101 15.2764C11.3493 15.2764 14.1983 16.7791 16.0279 19.1212C16.2362 19.3878 16.5863 19.5081 16.9078 19.4028C17.3826 19.2473 17.5834 18.6848 17.2797 18.2881C16.5986 17.3984 15.7903 16.6112 14.8821 15.9535C16.7031 14.0276 19.2822 12.8259 22.142 12.8259C22.6303 12.8259 23.1104 12.8609 23.58 12.9286C24.0529 12.9968 24.5006 12.6459 24.5006 12.1681C24.5006 11.8186 24.2558 11.5145 23.9104 11.4612C23.334 11.3721 22.7434 11.3259 22.142 11.3259C21.7586 11.3259 21.3796 11.3447 21.0058 11.3814V9.21914H22.6882H22.6926H22.8455H23.5589C23.9635 9.21914 24.2006 8.76355 23.9684 8.43218L23.5589 7.84794L23.4712 7.72277L23.4686 7.71914L22.8625 6.85429L22.7246 6.65744L22.0035 5.62853L21.9216 5.51168C21.8751 5.44541 21.9225 5.35429 22.0035 5.35429H22.1275H22.142H22.1462H22.3884H23.0089C23.1633 5.35429 23.2924 5.28852 23.3809 5.18909C23.4094 5.15704 23.4337 5.12149 23.4532 5.08352C23.538 4.91886 23.5336 4.70865 23.3982 4.54057L23.0089 4.05741L22.8543 3.86561L22.8452 3.85429L20.4112 0.833738C20.2111 0.585369 19.8327 0.585369 19.6325 0.833738L17.1986 3.85429L17.1894 3.86561L17.0349 4.05741L16.6456 4.54057C16.5769 4.62573 16.542 4.7217 16.5352 4.81709C16.5344 4.82831 16.534 4.83952 16.534 4.8507C16.5333 5.10965 16.7371 5.35429 17.0349 5.35429H17.6554H17.7982C17.8319 5.35429 17.8599 5.37013 17.8776 5.39341L17.8809 5.39811C17.9027 5.43038 17.9059 5.47486 17.8801 5.51168L17.7982 5.62853L17.0771 6.65744L17.0349 6.71767L16.9406 6.85223L16.333 7.71914L16.3305 7.72277L16.2428 7.84794L15.8333 8.43218C15.6011 8.76355 15.8381 9.21914 16.2428 9.21914H16.9562H17.1091H17.1135H19.5058V11.6297C17.2351 12.1628 15.224 13.3694 13.6948 15.0273C13.6586 15.0665 13.6279 15.1074 13.6023 15.1494C12.732 14.6795 11.7942 14.3186 10.8071 14.085V11.1241H13.8441H13.8485H14.0014H14.7148C15.1194 11.1241 15.3564 10.6686 15.1242 10.3372L14.7148 9.75297L14.627 9.6278L14.6245 9.62418L13.4202 7.90572L13.2822 7.70887L12.5611 6.67996L12.4792 6.56311C12.4328 6.49684 12.4802 6.40572 12.5611 6.40572H12.7038H13.1805H13.195H13.4413H13.9603H14.0618C14.1066 6.40572 14.1493 6.40018 14.1895 6.38988C14.5259 6.30366 14.6865 5.88418 14.4511 5.592L14.0618 5.10884L13.9073 4.91704L13.8981 4.90572ZM18.8261 4.22522L20.0219 2.74122L21.1268 4.11237C20.4176 4.57839 20.1413 5.5851 20.6932 6.37256L21.6369 7.71914H18.1647L19.1085 6.37256C19.6192 5.64377 19.4206 4.72719 18.8261 4.22522Z" fill="#31775A"/>
</g>
</g>
</g>
<defs>
<filter id="filter0_d_2_2343" x="0.5" y="0" width="28" height="28" filterUnits="userSpaceOnUse" color-interpolation-filters="sRGB">
<feFlood flood-opacity="0" result="BackgroundImageFix"/>
<feColorMatrix in="SourceAlpha" type="matrix" values="0 0 0 0 0 0 0 0 0 0 0 0 0 0 0 0 0 0 127 0" result="hardAlpha"/>
<feOffset dy="4"/>
<feGaussianBlur stdDeviation="2"/>
<feComposite in2="hardAlpha" operator="out"/>
<feColorMatrix type="matrix" values="0 0 0 0 0 0 0 0 0 0 0 0 0 0 0 0 0 0 0.25 0"/>
<feBlend mode="normal" in2="BackgroundImageFix" result="effect1_dropShadow_2_2343"/>
<feBlend mode="normal" in="SourceGraphic" in2="effect1_dropShadow_2_2343" result="shape"/>
</filter>
<clipPath id="clip0_2_2343">
<rect width="20" height="20" fill="white" transform="translate(4.5)"/>
</clipPath>
<clipPath id="clip1_2_2343">
<rect width="20" height="20" fill="white" transform="translate(4.5)"/>
</clipPath>
<clipPath id="clip2_2_2343">
<rect width="20" height="20" fill="white" transform="translate(4.5)"/>
</clipPath>
</defs>
</svg>
